<svg height="512pt" viewBox="0 0 512.00042 512" width="512pt" xmlns="http://www.w3.org/2000/svg"><path d="m.00390625 255.941406c.10156275 141.457032 114.85937475 256.046875 256.31640575 255.945313 26.847657-.023438 53.523438-4.261719 79.050782-12.566407l-5.289063-16.210937c-125.453125 40.929687-260.335937-27.589844-301.265625-153.042969-34.472656-105.660156 8.457032-221.132812 103.578125-278.613281l-8.839843-14.597656c-76.957032 46.113281-123.910157 129.375-123.55078175 219.085937zm0 0"/><path d="m353.023438 492.828125c5.972656-2.433594 11.875-5.121094 17.660156-8.039063l-7.675782-15.246093c-5.402343 2.707031-10.9375 5.230469-16.46875 7.5zm0 0"/><path d="m255.945312 0c-26.972656-.0273438-53.78125 4.214844-79.429687 12.566406l5.292969 16.210938c125.453125-40.929688 260.335937 27.589844 301.265625 153.042968 34.472656 105.65625-8.457031 221.132813-103.578125 278.613282l8.839844 14.597656c121-73.078125 159.847656-230.40625 86.769531-351.402344-46.355469-76.753906-129.496094-123.6562498-219.160157-123.628906zm0 0"/><path d="m158.855469 19.058594c-5.96875 2.433594-11.867188 5.121094-17.648438 8.039062l7.675781 15.246094c5.394532-2.707031 10.929688-5.222656 16.46875-7.5zm0 0"/><path d="m134.628906 91.015625c-.15625.117187-.257812.28125-.402344.398437-81.796874 60.378907-106.804687 171.6875-58.695312 261.25.050781.101563.042969.230469.101562.339844 1.3125 2.449219 2.773438 4.8125 4.1875 7.203125.402344.671875.777344 1.363281 1.1875 2.027344 1.339844 2.203125 2.753907 4.363281 4.171876 6.511719.640624.964844 1.28125 1.917968 1.9375 2.875 1.46875 2.132812 2.960937 4.265625 4.511718 6.339844.503906.679687 1.042969 1.335937 1.554688 2.019531 3.179687 4.160156 6.507812 8.1875 9.988281 12.089843.503906.570313 1 1.152344 1.511719 1.707032 1.707031 1.851562 3.410156 3.640625 5.167968 5.425781.921876.949219 1.859376 1.886719 2.808594 2.804687 1.707032 1.707032 3.414063 3.355469 5.222656 4.984376 1.023438.9375 2.089844 1.832031 3.128907 2.753906 2.957031 2.59375 5.996093 5.109375 9.113281 7.542968 1.40625 1.101563 2.804688 2.210938 4.265625 3.277344 1.636719 1.210938 3.308594 2.378906 4.980469 3.539063 1.671875 1.160156 3.25 2.21875 4.898437 3.292969 1.046875.691406 2.046875 1.433593 3.105469 2.097656.160156.097656.339844.128906.503906.222656 32.398438 20.269531 69.851563 31.003906 108.066406 30.976562 6.117188 0 12.148438-.324218 18.128907-.851562h.375c6.042969-.535156 12.003906-1.363281 17.917969-2.421875l1.226562-.222656c5.726562-1.0625 11.363281-2.367188 16.902344-3.90625l1.707031-.496094c5.40625-1.542969 10.738281-3.292969 15.953125-5.261719.722656-.273437 1.441406-.574218 2.167969-.855468 5.074219-1.988282 10.074219-4.136719 14.953125-6.507813.855468-.410156 1.65625-.851563 2.492187-1.28125 4.496094-2.269531 8.914063-4.664063 13.214844-7.25 1.117187-.667969 2.210937-1.367187 3.308594-2.046875 3.859375-2.417969 7.625-4.960938 11.304687-7.628906 1.316406-.945313 2.621094-1.886719 3.90625-2.867188 3.628906-2.746094 7.140625-5.644531 10.582032-8.632812 1.117187-.972656 2.257812-1.910156 3.410156-2.917969 3.601562-3.265625 7.046875-6.707031 10.410156-10.238281.671875-.699219 1.40625-1.320313 2.074219-2.039063.167969-.179687.269531-.390625.425781-.578125 18.769531-20.3125 33.230469-44.214844 42.519531-70.265625 0-.058593.078125-.101562.09375-.164062.152344-.433594.257813-.851563.410157-1.3125 1.707031-4.980469 3.300781-10.03125 4.648437-15.175781l.070313-.222657c1.320312-5.117187 2.40625-10.238281 3.34375-15.492187.144531-.855469.296874-1.640625.433593-2.457032.824219-4.984374 1.472657-10.019531 1.9375-15.109374.085938-.921876.136719-1.851563.214844-2.773438.355469-5.222656.621094-10.46875.621094-15.773438 0-4.265624-.171875-8.472656-.425781-12.660156-.070313-1.042968-.164063-2.074218-.238282-3.117187-.273437-3.484375-.628906-6.949219-1.066406-10.390625-.097656-.765625-.1875-1.542969-.292969-2.3125-1.214843-8.664063-2.984375-17.242188-5.296875-25.679688-.066406-.21875-.101562-.441406-.160156-.664062 0-.078125-.070312-.136719-.097656-.214844-7.5625-27.035156-20.613282-52.222656-38.339844-73.992188-.101562-.136718-.125-.316406-.238281-.453124-23.003907-28.195313-53.113281-49.738282-87.226563-62.414063l-1.550781-.578125c-2.398437-.855469-4.8125-1.707031-7.234375-2.460938-1.058594-.339843-2.117188-.679687-3.183594-.996093-2.113281-.644531-4.242187-1.25-6.378906-1.816407-1.433594-.386718-2.871094-.753906-4.308594-1.101562-1.902344-.46875-3.816406-.921875-5.734375-1.332031-1.707031-.363281-3.480469-.699219-5.222656-1.023438-1.738281-.324219-3.410156-.648437-5.167969-.929687-2.015625-.316406-4.042968-.578125-6.074218-.851563-1.535157-.195312-3.0625-.417969-4.597657-.589843-2.375-.246094-4.761719-.425782-7.160156-.597657-1.246094-.082031-2.472656-.210937-3.726563-.28125-3.652343-.1875-7.328124-.296875-11.03125-.296875-4.863281 0-9.667968.230469-14.4375.5625-1.226562.085938-2.445312.179688-3.667968.28125-4.546875.402344-9.058594.914063-13.511719 1.605469-1.203125.1875-2.390625.433594-3.59375.636719-3.378906.570312-6.730469 1.246094-10.058594 2.023437-1.65625.367188-3.316406.726563-4.957031 1.144531-3.859375.976563-7.679688 2.0625-11.457031 3.257813-1.925781.613281-3.839844 1.289063-5.75 1.953125-2.492188.871094-4.960938 1.792969-7.40625 2.765625-2.671875 1.050781-5.320313 2.15625-7.941407 3.316406-2.609374 1.160157-5.195312 2.355469-7.746093 3.617188-1.910157.9375-3.804688 1.910156-5.683594 2.917969-3.367187 1.800781-6.703125 3.667968-9.957031 5.648437-1.636719.996094-3.230469 2.0625-4.84375 3.113281-2.371094 1.527344-4.703125 3.113282-6.996094 4.734375-1.089844.8125-2.234375 1.449219-3.308594 2.246094zm14.671875 10.621094c2.320313-1.605469 4.667969-3.152344 7.039063-4.640625 2.023437-1.273438 4.0625-2.492188 6.125-3.6875 2.066406-1.195313 4.214844-2.386719 6.347656-3.515625 1.707031-.902344 3.414062-1.796875 5.1875-2.652344 3.039062-1.484375 6.109375-2.886719 9.214844-4.207031 1.78125-.75 3.609375-1.441406 5.417968-2.140625 2.097657-.800781 4.203126-1.570313 6.320313-2.300781 1.707031-.589844 3.414063-1.203126 5.171875-1.75 3.410156-1.066407 6.824219-2.015626 10.347656-2.882813 1.578125-.394531 3.171875-.742187 4.769532-1.101563 3.0625-.675781 6.148437-1.289062 9.253906-1.816406.964844-.164062 1.914062-.359375 2.875-.511718 4.046875-.617188 8.125-1.066407 12.21875-1.417969 1.144531-.101563 2.285156-.1875 3.414062-.265625 4.28125-.289063 8.597656-.492188 12.941406-.492188 3.285157 0 6.554688.085938 9.800782.253906 1.136718.0625 2.246094.179688 3.363281.257813 2.113281.144531 4.222656.28125 6.320313.503906 1.492187.152344 2.960937.375 4.445312.5625 1.707031.214844 3.414062.410157 5.042969.664063 1.808593.28125 3.582031.632812 5.375.964844 1.304687.238281 2.617187.460937 3.921875.726562 2.082031.433594 4.140625.929688 6.203125 1.433594.949219.230468 1.910156.441406 2.859375.691406 2.328125.605469 4.640625 1.277344 6.9375 1.96875.628906.1875 1.261718.367188 1.890625.5625 2.5625.804688 5.121093 1.707031 7.613281 2.558594l.953125.34375c2.738281 1.011718 5.449219 2.085937 8.140625 3.214844l.179688.078124c25.199218 10.710938 47.765624 26.785157 66.125 47.101563l-24.46875 16.3125c-.9375.621094-1.742188 1.425781-2.363282 2.363281l-33.65625 50.488282-22.984375 22.984374-56.910156 8.128907c-3.578125.515625-6.445313 3.230469-7.152344 6.773437l-8.53125 42.660156c-.492187 2.472657.132813 5.035157 1.707031 7.003907l30.226563 37.785156-7.824219 11.738281-18.238281-18.230468c-.289063-.28125-.597656-.542969-.921875-.777344l-63.984375-47.964844 7.070313-35.34375 32.828124-41.035156c2.945313-3.679688 2.351563-9.050782-1.328124-11.992188-.191407-.15625-.390626-.300781-.597657-.441406l-25.59375-17.0625c-2.746093-1.828125-6.300781-1.910156-9.128906-.210938l-38.027344 22.8125-17.265625-11.535156v-19.527344l18.769532-51.640624c.855468-.601563 1.707031-1.207032 2.558593-1.792969zm.855469 309.203125c-.453125-.308594-.855469-.632813-1.332031-.945313-4.625-3.226562-9.089844-6.640625-13.402344-10.238281-.914063-.761719-1.800781-1.554688-2.695313-2.332031-3.980468-3.472657-7.808593-7.109375-11.484374-10.902344-.925782-.953125-1.847657-1.921875-2.765626-2.898437-3.554687-3.824219-6.925781-7.808594-10.152343-11.945313-.792969-1.007813-1.609375-1.996094-2.378907-3.019531-3.316406-4.410156-6.421874-8.984375-9.382812-13.652344-.351562-.5625-.734375-1.109375-1.078125-1.707031l6.519531-2.609375 44.023438 22.019531 6.933594 34.664063zm14.613281 9.050781 4.042969-5.050781c1.578125-1.964844 2.203125-4.53125 1.707031-7.003906l-8.53125-42.65625c-.511719-2.585938-2.191406-4.792969-4.546875-5.972657l-51.1875-25.59375c-2.183594-1.089843-4.726562-1.191406-6.988281-.28125l-11.945313 4.785157c-34.410156-70.464844-21.261718-154.914063 32.949219-211.578126l-8.847656 24.109376c-.335937.9375-.507813 1.921874-.511719 2.917968v25.59375c0 2.851563 1.425782 5.515625 3.796875 7.097656l25.59375 17.0625c2.746094 1.832032 6.300781 1.914063 9.128907.214844l38.023437-22.8125 13.363281 8.90625-28.316406 35.386719c-.855469 1.066406-1.441406 2.320313-1.707031 3.660156l-8.53125 42.660157c-.660157 3.230468.601562 6.550781 3.242187 8.53125l67.765625 50.820312 25.167969 25.167969c1.605469 1.589843 3.777344 2.476562 6.039062 2.464843.285157.015626.570313.015626.851563 0 2.542969-.25 4.835937-1.628906 6.253906-3.753906l17.0625-25.59375c2.066407-3.09375 1.890625-7.164062-.433593-10.066406l-31.644532-39.550781 6.570313-32.839844 53.75-7.675781c1.824219-.265625 3.515625-1.109375 4.820312-2.414063l25.59375-25.597656c.394531-.394531.753907-.828125 1.066407-1.292969l33.175781-49.773437 24.503906-16.339844c13.042969 17.339844 22.976563 36.816406 29.355469 57.554687l-31.914063 31.914063c-1.59375 1.589844-2.496093 3.742187-2.507812 5.992187v34.125c0 1.085938.203125 2.164063.605469 3.171876l17.0625 42.660156c.875 2.160156 2.589843 3.875 4.75 4.75l6.542968 2.609375c-7.847656 19.347656-18.871094 37.25-32.605468 52.972656l-26.667969-11.421875-34.125-17.0625c-1.699219-.847656-3.628907-1.101562-5.488281-.726562l-42.65625 8.53125c-1.652344.324218-3.171876 1.136718-4.359376 2.328124l-42.65625 42.660157c-2.808593 2.808593-3.308593 7.183593-1.203124 10.550781l18.460937 29.535156c-.90625 0-1.792969.070313-2.695313.070313-31.941406.027343-63.351562-8.148438-91.226562-23.742188h.050781zm275.453125-199.257813c1.09375 5.6875 1.921875 11.417969 2.492188 17.199219 0 .21875 0 .449219.050781.679688.539063 5.792969.851563 11.613281.851563 17.429687 0 4.121094-.175782 8.226563-.449219 12.3125-.070313 1.066406-.15625 2.125-.238281 3.183594-.300782 3.582031-.675782 7.148438-1.179688 10.695312-.074219.53125-.117188 1.066407-.203125 1.597657-.605469 4.058593-1.367187 8.097656-2.234375 12.105469-.1875.851562-.386719 1.707031-.582031 2.515624-.820313 3.527344-1.738281 7.03125-2.753907 10.511719-.121093.410157-.230468.851563-.359374 1.238281l-2.492188-1.007812-15.082031-37.726562v-28.957032l22.179687-22.179687zm-57.160156 173.1875c-2.703125 2.5-5.476562 4.929688-8.316406 7.257813-1.265625 1.035156-2.5625 2.023437-3.855469 3.03125-2.328125 1.808594-4.699219 3.566406-7.117187 5.269531-1.355469.957032-2.710938 1.914063-4.09375 2.835938-2.953126 1.960937-5.972657 3.828125-9.011719 5.613281-1.210938.714844-2.429688 1.421875-3.660157 2.105469-3.523437 1.960937-7.097656 3.832031-10.738281 5.5625-.855469.402344-1.707031.777344-2.5625 1.167968-3.625 1.65625-7.300781 3.21875-11.027343 4.632813-.472657.179687-.921876.375-1.394532.546875-4.261718 1.585938-8.582031 2.996094-12.949218 4.265625-.589844.179687-1.183594.339844-1.773438.511719-9.25 2.585937-18.6875 4.460937-28.222656 5.605468l-.375.050782-19.714844-31.566406 36.027344-36.035157 37.257812-7.449219 31.957032 15.960938 21.210937 9.09375c-.539063.539062-1.066406 1.066406-1.640625 1.570312zm0 0"/></svg>